<svg width="200" height="43" viewBox="0 0 200 43" fill="none" xmlns="http://www.w3.org/2000/svg">
<path d="M52.5526 10.81C53.1593 10.81 53.6726 11.0433 54.0926 11.51C54.536 11.9533 54.7576 12.4783 54.7576 13.085C54.7576 13.6917 54.536 14.2283 54.0926 14.695C53.6726 15.1383 53.1593 15.36 52.5526 15.36C51.876 15.3367 51.316 15.1267 50.8726 14.73C50.4526 14.31 50.2426 13.7267 50.2426 12.98C50.266 12.3733 50.4993 11.86 50.9426 11.44C51.4093 11.02 51.946 10.81 52.5526 10.81ZM52.5526 16.165C53.1593 16.165 53.661 16.3867 54.0576 16.83C54.4776 17.2733 54.711 17.81 54.7576 18.44V30.83C54.7576 31.46 54.5593 31.985 54.1626 32.405C53.766 32.825 53.2293 33.0583 52.5526 33.105C51.946 33.105 51.4326 32.9183 51.0126 32.545C50.5926 32.1717 50.336 31.6467 50.2426 30.97V18.3C50.2893 17.6933 50.5343 17.1917 50.9776 16.795C51.421 16.3983 51.946 16.1883 52.5526 16.165ZM65.4778 15.955C66.5978 15.955 67.6711 16.165 68.6978 16.585C69.7244 16.9817 70.6228 17.5533 71.3928 18.3C72.1628 19.0233 72.7811 19.8867 73.2478 20.89C73.7144 21.8933 73.9478 22.9783 73.9478 24.145V30.62C73.9478 31.2267 73.7261 31.7517 73.2828 32.195C72.8628 32.6383 72.3378 32.8717 71.7078 32.895C71.0778 32.895 70.5294 32.6967 70.0628 32.3C69.6194 31.88 69.3978 31.355 69.3978 30.725V24.425C69.3978 23.8883 69.2928 23.3867 69.0828 22.92C68.8961 22.43 68.6161 22.01 68.2428 21.66C67.8928 21.31 67.4728 21.03 66.9828 20.82C66.5161 20.61 66.0028 20.505 65.4428 20.505C64.9294 20.505 64.4394 20.61 63.9728 20.82C63.5061 21.0067 63.0978 21.2633 62.7478 21.59C62.3978 21.9167 62.1178 22.3133 61.9078 22.78C61.6978 23.2467 61.5928 23.7367 61.5928 24.25V30.62C61.5928 31.2267 61.3594 31.7633 60.8928 32.23C60.4261 32.6733 59.8894 32.895 59.2828 32.895C58.6761 32.895 58.1394 32.685 57.6728 32.265C57.2061 31.845 56.9728 31.3317 56.9728 30.725V24.425C56.9961 23.2583 57.2178 22.1617 57.6378 21.135C58.0811 20.1083 58.6761 19.21 59.4228 18.44C60.1928 17.67 61.0911 17.0633 62.1178 16.62C63.1444 16.1767 64.2644 15.955 65.4778 15.955ZM84.5159 15.955C85.6359 15.955 86.7092 16.165 87.7359 16.585C88.7625 16.9817 89.6609 17.5533 90.4309 18.3C91.2009 19.0233 91.8192 19.8867 92.2859 20.89C92.7525 21.8933 92.9858 22.9783 92.9858 24.145V30.62C92.9858 31.2267 92.7642 31.7517 92.3209 32.195C91.9009 32.6383 91.3759 32.8717 90.7459 32.895C90.1159 32.895 89.5675 32.6967 89.1009 32.3C88.6575 31.88 88.4358 31.355 88.4358 30.725V24.425C88.4358 23.8883 88.3309 23.3867 88.1209 22.92C87.9342 22.43 87.6542 22.01 87.2808 21.66C86.9309 21.31 86.5109 21.03 86.0209 20.82C85.5542 20.61 85.0409 20.505 84.4809 20.505C83.9675 20.505 83.4775 20.61 83.0109 20.82C82.5442 21.0067 82.1358 21.2633 81.7858 21.59C81.4358 21.9167 81.1558 22.3133 80.9458 22.78C80.7358 23.2467 80.6309 23.7367 80.6309 24.25V30.62C80.6309 31.2267 80.3975 31.7633 79.9308 32.23C79.4642 32.6733 78.9275 32.895 78.3208 32.895C77.7142 32.895 77.1775 32.685 76.7108 32.265C76.2442 31.845 76.0108 31.3317 76.0108 30.725V24.425C76.0342 23.2583 76.2558 22.1617 76.6758 21.135C77.1192 20.1083 77.7142 19.21 78.4608 18.44C79.2308 17.67 80.1292 17.0633 81.1559 16.62C82.1825 16.1767 83.3025 15.955 84.5159 15.955ZM103.344 16.025C104.487 16.025 105.572 16.2467 106.599 16.69C107.626 17.1333 108.524 17.74 109.294 18.51C110.064 19.28 110.671 20.1783 111.114 21.205C111.581 22.2317 111.814 23.34 111.814 24.53C111.814 25.6967 111.592 26.7933 111.149 27.82C110.706 28.8233 110.099 29.71 109.329 30.48C108.582 31.25 107.696 31.8567 106.669 32.3C105.642 32.7433 104.534 32.965 103.344 32.965C102.177 32.965 101.081 32.755 100.054 32.335C99.0273 31.915 98.1289 31.3317 97.3589 30.585C96.5889 29.815 95.9823 28.9167 95.5389 27.89C95.0956 26.8633 94.8739 25.7433 94.8739 24.53C94.8739 23.3633 95.0839 22.2783 95.5039 21.275C95.9473 20.2483 96.5423 19.3617 97.2889 18.615C98.0589 17.845 98.9573 17.2383 99.9839 16.795C101.034 16.3283 102.154 16.0717 103.344 16.025ZM103.344 20.61C102.807 20.61 102.306 20.715 101.839 20.925C101.372 21.1117 100.952 21.38 100.579 21.73C100.229 22.08 99.9489 22.5 99.7389 22.99C99.5289 23.4567 99.4239 23.97 99.4239 24.53C99.4239 25.0667 99.5289 25.58 99.7389 26.07C99.9489 26.5367 100.229 26.9567 100.579 27.33C100.952 27.68 101.372 27.96 101.839 28.17C102.306 28.38 102.807 28.485 103.344 28.485C103.881 28.485 104.382 28.38 104.849 28.17C105.339 27.96 105.759 27.68 106.109 27.33C106.459 26.9567 106.739 26.5367 106.949 26.07C107.159 25.58 107.264 25.0667 107.264 24.53C107.217 23.4567 106.832 22.5467 106.109 21.8C105.386 21.0533 104.464 20.6567 103.344 20.61ZM125.813 16.165C126.42 16.4217 126.851 16.8417 127.108 17.425C127.365 17.985 127.365 18.5683 127.108 19.175L122.033 31.53C121.916 31.7867 121.66 32.1017 121.263 32.475C120.89 32.825 120.435 33 119.898 33C119.431 33 118.988 32.895 118.568 32.685C118.148 32.4517 117.845 32.0667 117.658 31.53L112.513 19.175C112.256 18.5683 112.256 17.985 112.513 17.425C112.77 16.8417 113.201 16.4217 113.808 16.165C114.415 15.9317 115.01 15.9433 115.593 16.2C116.176 16.4567 116.596 16.8883 116.853 17.495L119.828 24.215L122.768 17.495C123.025 16.8883 123.445 16.4567 124.028 16.2C124.635 15.9433 125.23 15.9317 125.813 16.165ZM137.342 16.095C138.392 16.2117 139.372 16.515 140.282 17.005C141.216 17.495 142.009 18.125 142.662 18.895C143.339 19.6417 143.864 20.505 144.237 21.485C144.634 22.4417 144.832 23.4567 144.832 24.53V30.725C144.832 31.355 144.599 31.8917 144.132 32.335C143.666 32.7783 143.141 33 142.557 33C141.741 33 141.087 32.6267 140.597 31.88C140.481 31.9267 140.376 31.985 140.282 32.055C140.189 32.1017 140.096 32.1483 140.002 32.195C139.442 32.4517 138.871 32.65 138.287 32.79C137.681 32.93 137.039 33 136.362 33C134.612 33 133.049 32.5333 131.672 31.6C130.296 30.6433 129.269 29.4183 128.592 27.925C128.359 27.3883 128.172 26.84 128.032 26.28C127.916 25.72 127.857 25.1367 127.857 24.53C127.857 23.9233 127.916 23.34 128.032 22.78C128.172 22.22 128.359 21.6717 128.592 21.135C129.269 19.6183 130.296 18.3933 131.672 17.46C133.049 16.5267 134.612 16.06 136.362 16.06C136.549 16.06 136.712 16.06 136.852 16.06C137.016 16.06 137.179 16.0717 137.342 16.095ZM136.327 28.45C136.864 28.45 137.366 28.3567 137.832 28.17C138.322 27.96 138.742 27.68 139.092 27.33C139.442 26.98 139.722 26.5717 139.932 26.105C140.142 25.615 140.247 25.09 140.247 24.53C140.247 24.0167 140.142 23.5267 139.932 23.06C139.722 22.57 139.431 22.15 139.057 21.8C138.707 21.4267 138.287 21.135 137.797 20.925C137.331 20.715 136.841 20.61 136.327 20.61C135.814 20.61 135.324 20.715 134.857 20.925C134.391 21.135 133.971 21.4267 133.597 21.8C133.247 22.15 132.967 22.57 132.757 23.06C132.547 23.5267 132.442 24.0167 132.442 24.53C132.442 25.0667 132.547 25.58 132.757 26.07C132.991 26.5367 133.282 26.945 133.632 27.295C134.006 27.645 134.426 27.925 134.892 28.135C135.359 28.345 135.837 28.45 136.327 28.45ZM155.16 16.06C157.494 16.06 159.477 16.8767 161.11 18.51C161.507 18.9533 161.682 19.4783 161.635 20.085C161.612 20.6917 161.39 21.1933 160.97 21.59C160.55 21.9867 160.014 22.1967 159.36 22.22C158.707 22.2433 158.17 22.0333 157.75 21.59C157.027 20.9367 156.164 20.61 155.16 20.61C154.624 20.61 154.11 20.7267 153.62 20.96C153.154 21.17 152.734 21.4617 152.36 21.835C152.01 22.185 151.73 22.5933 151.52 23.06C151.31 23.5267 151.205 24.0167 151.205 24.53C151.205 25.0667 151.31 25.58 151.52 26.07C151.73 26.5367 152.022 26.9567 152.395 27.33C152.769 27.68 153.189 27.96 153.655 28.17C154.122 28.38 154.624 28.4733 155.16 28.45C156.187 28.45 157.05 28.135 157.75 27.505C158.17 27.0383 158.707 26.805 159.36 26.805C160.014 26.805 160.55 27.0383 160.97 27.505C161.18 27.6917 161.344 27.9133 161.46 28.17C161.577 28.4267 161.635 28.695 161.635 28.975C161.659 29.255 161.624 29.535 161.53 29.815C161.437 30.0717 161.297 30.305 161.11 30.515C160.294 31.3317 159.395 31.95 158.415 32.37C157.435 32.79 156.35 33 155.16 33C153.994 33 152.897 32.7783 151.87 32.335C150.844 31.8683 149.945 31.25 149.175 30.48C148.405 29.71 147.787 28.8117 147.32 27.785C146.877 26.7583 146.655 25.6733 146.655 24.53C146.655 23.41 146.877 22.3367 147.32 21.31C147.787 20.2833 148.405 19.385 149.175 18.615C149.969 17.845 150.879 17.2267 151.905 16.76C152.932 16.2933 154.017 16.06 155.16 16.06ZM165.959 10.74C166.589 10.74 167.114 10.9617 167.534 11.405C167.978 11.8483 168.223 12.3967 168.269 13.05V26.875C168.269 27.3417 168.421 27.7383 168.724 28.065C169.028 28.3917 169.413 28.555 169.879 28.555C170.486 28.555 171.011 28.765 171.454 29.185C171.921 29.605 172.166 30.13 172.189 30.76C172.189 31.32 171.991 31.8217 171.594 32.265C171.221 32.685 170.731 32.9417 170.124 33.035H169.634C168.818 33.035 168.048 32.8717 167.324 32.545C166.601 32.195 165.959 31.74 165.399 31.18C164.863 30.62 164.431 29.9667 164.104 29.22C163.801 28.4733 163.649 27.6917 163.649 26.875V12.91C163.719 12.3267 163.964 11.825 164.384 11.405C164.804 10.985 165.329 10.7633 165.959 10.74ZM176.01 10.81C176.616 10.81 177.13 11.0433 177.55 11.51C177.993 11.9533 178.215 12.4783 178.215 13.085C178.215 13.6917 177.993 14.2283 177.55 14.695C177.13 15.1383 176.616 15.36 176.01 15.36C175.333 15.3367 174.773 15.1267 174.33 14.73C173.91 14.31 173.7 13.7267 173.7 12.98C173.723 12.3733 173.956 11.86 174.4 11.44C174.866 11.02 175.403 10.81 176.01 10.81ZM176.01 16.165C176.616 16.165 177.118 16.3867 177.515 16.83C177.935 17.2733 178.168 17.81 178.215 18.44V30.83C178.215 31.46 178.016 31.985 177.62 32.405C177.223 32.825 176.686 33.0583 176.01 33.105C175.403 33.105 174.89 32.9183 174.47 32.545C174.05 32.1717 173.793 31.6467 173.7 30.97V18.3C173.746 17.6933 173.991 17.1917 174.435 16.795C174.878 16.3983 175.403 16.1883 176.01 16.165ZM193.66 16.725C194.103 16.2817 194.616 16.0717 195.2 16.095C195.806 16.095 196.343 16.3167 196.81 16.76C197.23 17.18 197.44 17.705 197.44 18.335C197.44 18.965 197.23 19.5017 196.81 19.945L192.26 24.53L196.81 29.115C197.23 29.535 197.451 30.0717 197.475 30.725C197.498 31.355 197.276 31.9033 196.81 32.37C196.39 32.79 195.853 33 195.2 33C194.57 33 194.021 32.755 193.555 32.265L189.005 27.785L184.455 32.37C184.035 32.7433 183.51 32.9533 182.88 33C182.25 33.0467 181.701 32.8367 181.235 32.37C180.815 31.95 180.581 31.4367 180.535 30.83C180.511 30.2 180.721 29.6517 181.165 29.185L185.82 24.53L181.165 19.875C180.721 19.4317 180.523 18.9183 180.57 18.335C180.616 17.7517 180.838 17.2267 181.235 16.76C181.748 16.2467 182.296 16.0133 182.88 16.06C183.463 16.1067 183.988 16.34 184.455 16.76L189.005 21.31L193.66 16.725Z" fill="#15141A"/>
<path d="M35.5303 8.39523L15.7055 10.4873C12.6824 10.8063 10.4903 13.5157 10.8093 16.5389L12.7374 34.8097C13.0564 37.8328 15.7658 40.025 18.7889 39.706L38.6137 37.6139C41.6369 37.2949 43.829 34.5855 43.51 31.5623L41.5819 13.2915C41.2629 10.2683 38.5535 8.0762 35.5303 8.39523Z" fill="url(#paint0_linear_4_54)"/>
<path d="M21.4046 3.06637L5.3111 12.358C2.37786 14.0515 1.37286 17.8022 3.06636 20.7354L12.3579 36.8289C14.0514 39.7621 17.8022 40.7671 20.7354 39.0736L36.8289 29.7821C39.7621 28.0886 40.7671 24.3378 39.0736 21.4046L29.782 5.31111C28.0885 2.37787 24.3378 1.37286 21.4046 3.06637Z" fill="url(#paint1_linear_4_54)"/>
<path opacity="0.271" d="M9.61086 11.2532L23.3429 4.94232C24.9962 4.27434 26.8472 4.29049 28.4886 4.98722C30.13 5.68396 31.4273 7.00419 32.0953 8.6575L38.9728 25.0539C39.6408 26.7072 39.6246 28.5581 38.9279 30.1995C38.2312 31.8409 36.9109 33.1383 35.2576 33.8063L20.0297 38.6349C16.5868 40.0259 14.4218 39.3443 13.0308 35.9014L5.89568 20.0056C5.2277 18.3523 5.24385 16.5014 5.94058 14.86C6.63731 13.2186 7.95755 11.9212 9.61086 11.2532Z" fill="url(#paint2_linear_4_54)"/>
<path opacity="0.256" d="M34.5116 9.58846L16.9488 11.4418C13.9257 11.7608 11.7335 14.4702 12.0526 17.4934L13.754 33.6165C14.073 36.6396 16.7824 38.8318 19.8056 38.5127L37.3684 36.6594C40.3915 36.3403 42.5837 33.631 42.2646 30.6078L40.5632 14.4847C40.2442 11.4616 37.5348 9.26943 34.5116 9.58846Z" fill="url(#paint3_linear_4_54)"/>
<path d="M31.5164 5.62099L10.5708 11.6271C8.55981 12.2037 7.39708 14.3013 7.9737 16.3123L14.0343 37.448C14.6109 39.4589 16.7085 40.6216 18.7195 40.045L39.6651 34.0389C41.6761 33.4623 42.8388 31.3647 42.2622 29.3537L36.2016 8.21804C35.625 6.2071 33.5274 5.04437 31.5164 5.62099Z" fill="url(#paint4_linear_4_54)"/>
<path opacity="0.357" d="M30.2758 7.87412L12.8169 12.8804C10.806 13.457 9.64323 15.5546 10.2199 17.5656L15.275 35.1949C15.8516 37.2058 17.9492 38.3685 19.9602 37.7919L37.419 32.7857C39.43 32.209 40.5927 30.1114 40.0161 28.1005L34.961 10.4712C34.3843 8.46023 32.2867 7.29749 30.2758 7.87412Z" fill="url(#paint5_linear_4_54)"/>
<path d="M16.0535 39.9494C15.5854 39.7405 15.1687 39.4316 14.8327 39.0444C14.4967 38.6572 14.2496 38.2011 14.1088 37.7081L7.89908 16.0522C7.64195 15.1555 7.75157 14.1934 8.20382 13.3775C8.65606 12.5616 9.41389 11.9588 10.3106 11.7017L30.1814 6.00354L39.3895 21.9513C40.119 23.2149 40.3167 24.7165 39.9391 26.1259C39.5614 27.5352 38.6394 28.7368 37.3759 29.4664L20.1886 39.3893C18.9377 40.1131 17.4519 40.3144 16.0535 39.9494Z" fill="white"/>
<path d="M22.7375 22.4066C22.7375 22.4066 22.4989 19.0511 23.7229 17.259C24.9469 15.4669 26.7854 15.3849 26.7854 15.3849C26.7854 15.3849 27.9849 15.3048 29.5722 15.9853C31.1595 16.6659 31.9096 17.6149 31.9096 17.6149C31.9096 17.6149 33.0808 18.9637 31.8051 20.1482C30.5293 21.3326 29.0598 19.8807 29.0598 19.8807C29.0598 19.8807 28.3564 18.8185 25.7697 19.1098C23.1831 19.4011 22.7375 22.4066 22.7375 22.4066Z" fill="url(#paint6_linear_4_54)"/>
<path opacity="0.138" d="M22.6729 20.0411C22.6729 20.0411 23.4567 16.1009 27.8975 16.895C32.3384 17.6891 31.914 20.0411 31.914 20.0411C31.914 20.0411 33.1212 18.9247 31.7278 17.4191C31.1997 16.8316 30.2359 16.1869 28.9149 15.7445C27.594 15.3022 26.6624 15.3266 26.0354 15.4936C24.3314 15.9474 22.6729 20.0411 22.6729 20.0411Z" fill="white"/>
<path d="M26.7553 15.3869C26.7553 15.3869 24.8838 16.1521 23.8847 17.872C22.8856 19.5918 22.8386 20.1739 22.7591 22.2667C22.6797 24.3595 24.2315 25.7138 24.2315 25.7138C24.2315 25.7138 22.2845 25.232 21.1522 24.3176C20.0199 23.4032 19.3557 21.7383 19.3557 21.7383C19.3557 21.7383 19.717 18.8221 21.938 17.0246C24.1591 15.2272 26.7553 15.3869 26.7553 15.3869Z" fill="url(#paint7_linear_4_54)"/>
<path opacity="0.162" d="M21.414 23.7205C21.414 23.7205 21.046 20.3287 22.3918 18.2453C23.7375 16.1618 26.7971 15.3871 26.7971 15.3871C26.7971 15.3871 25.0499 15.2032 23.0198 16.3016C20.9898 17.4001 20.233 19.0563 20.233 19.0563C20.233 19.0563 20.1609 20.4632 20.4242 21.7586C20.6874 23.054 21.414 23.7205 21.414 23.7205Z" fill="white"/>
<path d="M20.2815 18.9973C20.2815 18.9973 20.3107 21.2859 21.0635 22.7329C21.8162 24.1798 22.5729 24.7565 24.2018 25.697C25.8307 26.6374 28.2026 26.1565 28.2026 26.1565C28.2026 26.1565 26.8217 27.744 25.4405 28.2631C24.0592 28.7821 22.0164 28.4596 22.0164 28.4596C22.0164 28.4596 19.7367 26.8102 19.2908 23.9877C18.8449 21.1652 20.2815 18.9973 20.2815 18.9973Z" fill="url(#paint8_linear_4_54)"/>
<path opacity="0.148" d="M26.0714 27.917C26.0714 27.917 22.646 27.73 20.9732 25.2335C19.3004 22.737 20.2458 19.0184 20.2458 19.0184C20.2458 19.0184 18.881 21.2342 19.2661 23.8434C19.6512 26.4526 21.4766 28.0431 21.4766 28.0431C21.4766 28.0431 22.735 28.5356 23.9382 28.4991C24.6841 28.4685 25.4133 28.2695 26.0714 27.917Z" fill="white"/>
<path d="M21.2878 27.7984C21.2878 27.7984 23.2373 30.1811 26.8821 30.0759C30.5268 29.9708 31.6066 27.9795 31.6066 27.9795C31.6066 27.9795 32.7779 26.6308 31.502 25.4463C30.2261 24.2617 28.7568 25.7138 28.7568 25.7138C28.7568 25.7138 27.5663 26.6226 25.501 27.6554C23.4357 28.6882 21.2878 27.7984 21.2878 27.7984Z" fill="url(#paint9_linear_4_54)"/>
<path opacity="0.147" d="M31.8378 25.8554C31.8378 25.8554 28.8519 28.636 26.2245 29.117C23.5971 29.5981 21.2941 27.8297 21.2941 27.8297C21.2941 27.8297 23.2947 30.1379 26.552 30.1452C29.8093 30.1525 31.1723 28.4994 31.1723 28.4994C31.1723 28.4994 31.8946 27.8319 32.0609 27.1708C32.2272 26.5096 31.8378 25.8554 31.8378 25.8554Z" fill="white"/>
<path d="M18.3082 29.645C18.3082 29.645 14.9211 29.2243 14.9211 25.6817C14.9211 22.1392 18.3082 20.2503 18.3082 20.2503V29.645Z" fill="url(#paint10_linear_4_54)"/>
<path opacity="0.19" d="M18.3082 20.1871C18.3082 20.1871 16.4133 23.2525 16.4133 25.9093C16.4133 28.5662 18.3082 29.6821 18.3082 29.6821V20.1871Z" fill="white"/>
<path d="M14.9211 16.3497C14.9211 16.3497 18.3082 16.7786 18.3082 20.3901C18.3082 24.0015 14.9211 25.9276 14.9211 25.9276V16.3497Z" fill="url(#paint11_linear_4_54)"/>
<path opacity="0.19" d="M14.9211 25.9913C14.9211 25.9913 16.816 22.8666 16.816 20.1583C16.816 17.4499 14.9211 16.3125 14.9211 16.3125V25.9913Z" fill="white"/>
<path d="M16.5561 14.0524C16.5561 14.0524 16.2225 14.5236 16.6203 15.0986C17.0181 15.6736 17.9116 15.3095 17.9116 15.3095C17.7421 15.4896 17.5368 15.6322 17.3088 15.728C17.0808 15.8238 16.8352 15.8708 16.5879 15.8659C15.7378 15.8532 15.4231 15.4202 15.4231 15.4202C15.4231 15.4202 14.9846 14.7525 15.4802 14.2179C15.6118 14.0687 15.7915 13.9704 15.9881 13.9402C16.1848 13.9099 16.3857 13.9496 16.5561 14.0524Z" fill="url(#paint12_linear_4_54)"/>
<path d="M16.5578 14.0528C16.5578 14.0528 16.0581 13.791 15.6481 14.3277C15.2381 14.8644 15.5348 15.5281 15.5348 15.5281C15.3306 15.3939 15.1578 15.2172 15.0283 15.01C14.8988 14.8029 14.8156 14.5702 14.7844 14.3278C14.6742 13.4954 15.0489 13.1008 15.0489 13.1008C15.0489 13.1008 15.6261 12.3911 16.2972 12.8805C16.9683 13.37 16.5578 14.0528 16.5578 14.0528Z" fill="url(#paint13_linear_4_54)"/>
<path d="M16.5613 14.0519C16.5613 14.0519 16.6723 13.3305 15.7397 13.3484C14.807 13.3664 14.7808 14.2798 14.7808 14.2798C14.7407 14.0405 14.7509 13.7954 14.8107 13.5602C14.8704 13.3249 14.9784 13.1047 15.1278 12.9134C15.6385 12.247 16.1522 12.2483 16.1522 12.2483C16.1522 12.2483 17.0843 12.1965 17.2126 13.0167C17.3409 13.837 16.5613 14.0519 16.5613 14.0519Z" fill="url(#paint14_linear_4_54)"/>
<path d="M16.5605 14.0498C16.5605 14.0498 17.2372 13.7086 16.9786 13.075C16.7199 12.4414 15.5001 12.5163 15.5001 12.5163C15.762 12.3276 16.0692 12.2116 16.3905 12.1802C16.7118 12.1487 17.0357 12.2029 17.3293 12.3371C18.3697 12.7968 18.3917 13.6175 18.3917 13.6175C18.3917 13.6175 18.3676 14.4931 17.5472 14.6213C16.7268 14.7495 16.5605 14.0498 16.5605 14.0498Z" fill="url(#paint15_linear_4_54)"/>
<path d="M16.5623 14.0457C16.7219 14.1808 16.9191 14.2637 17.1273 14.2831C17.3354 14.3026 17.5446 14.2578 17.7265 14.1547C18.4017 13.8023 17.8249 12.6446 17.8249 12.6446C17.8249 12.6446 18.4496 13.0194 18.4463 14.0171C18.4431 15.0147 17.8249 15.3954 17.8249 15.3954C17.8249 15.3954 17.0545 15.812 16.5332 15.1656C16.0119 14.5193 16.5623 14.0457 16.5623 14.0457Z" fill="url(#paint16_linear_4_54)"/>
<path opacity="0.145" d="M15.8901 14.9379C15.8403 14.1074 16.5697 14.0285 16.5697 14.0285C16.5697 14.0285 16.0046 14.5664 16.5697 15.184C16.7188 15.3571 16.9225 15.4741 17.1472 15.5158C17.3718 15.5575 17.604 15.5212 17.8053 15.4131C17.6418 15.5498 17.4581 15.6606 17.2608 15.7413C16.964 15.8536 15.94 15.7683 15.8901 14.9379Z" fill="white"/>
<path opacity="0.085" d="M15.5147 15.5276C15.5147 15.5276 14.5901 14.735 15.3945 13.9774C16.1989 13.2199 16.5734 14.0344 16.5734 14.0344C16.4146 13.9695 16.2383 13.9608 16.0739 14.0099C15.9095 14.059 15.7669 14.1629 15.6697 14.3043C15.2809 14.8122 15.5147 15.5276 15.5147 15.5276Z" fill="white"/>
<path opacity="0.165" d="M17.1246 12.2211C17.3744 12.2675 17.606 12.3831 17.7933 12.5548C17.9696 12.73 17.9708 12.9797 18.0206 13.2394C18.0747 13.519 18.1389 13.8138 17.8567 14.0684C17.3377 14.5363 16.5284 14.0684 16.5284 14.0684C16.5284 14.0684 17.1311 14.2244 17.4594 13.4955C17.7877 12.7665 17.1246 12.2211 17.1246 12.2211Z" fill="white"/>
<path opacity="0.098" d="M14.761 14.2251C14.761 14.2251 14.725 12.6036 15.9595 12.8749C17.1941 13.1462 16.5515 14.0393 16.5515 14.0393C16.5515 14.0393 16.6986 13.426 15.7958 13.3391C14.8929 13.2522 14.761 14.2251 14.761 14.2251Z" fill="white"/>
<path opacity="0.15" d="M18.4592 14.1176C18.4592 14.1176 18.322 15.8966 17.047 15.4695C15.7721 15.0425 16.542 14.0621 16.542 14.0621C16.542 14.0621 16.4241 14.6883 17.4128 14.8158C18.4016 14.9434 18.4592 14.1176 18.4592 14.1176Z" fill="#142A31"/>
<defs>
<linearGradient id="paint0_linear_4_54" x1="39.7127" y1="12.3855" x2="18.5729" y2="40.3274" gradientUnits="userSpaceOnUse">
<stop stop-color="#FE026C"/>
<stop offset="1" stop-color="#C60A5F"/>
</linearGradient>
<linearGradient id="paint1_linear_4_54" x1="13.3578" y1="7.71216" x2="28.7822" y2="34.4278" gradientUnits="userSpaceOnUse">
<stop stop-color="#CD7CFA"/>
<stop offset="1" stop-color="#0010D3"/>
</linearGradient>
<linearGradient id="paint2_linear_4_54" x1="16.4531" y1="7.72598" x2="28.1504" y2="36.6778" gradientUnits="userSpaceOnUse">
<stop stop-color="#ECCBFF"/>
<stop offset="1" stop-color="#7176AC"/>
</linearGradient>
<linearGradient id="paint3_linear_4_54" x1="38.789" y1="13.2429" x2="19.2031" y2="39.131" gradientUnits="userSpaceOnUse">
<stop stop-color="white"/>
<stop offset="1" stop-color="#C60A5F"/>
</linearGradient>
<linearGradient id="paint4_linear_4_54" x1="32.3909" y1="6.75418" x2="16.1568" y2="37.9049" gradientUnits="userSpaceOnUse">
<stop stop-color="#00C4FF"/>
<stop offset="1" stop-color="#1856C9"/>
</linearGradient>
<linearGradient id="paint5_linear_4_54" x1="31.4921" y1="8.73854" x2="17.2599" y2="36.0425" gradientUnits="userSpaceOnUse">
<stop stop-color="white"/>
<stop offset="1" stop-color="#1856C9"/>
</linearGradient>
<linearGradient id="paint6_linear_4_54" x1="32.7878" y1="17.7563" x2="23.6847" y2="21.185" gradientUnits="userSpaceOnUse">
<stop stop-color="#DD90FF"/>
<stop offset="0.355" stop-color="#A428F2"/>
<stop offset="0.734" stop-color="#5F00BE"/>
<stop offset="1" stop-color="#360780"/>
</linearGradient>
<linearGradient id="paint7_linear_4_54" x1="24.898" y1="15.3833" x2="21.2614" y2="24.5581" gradientUnits="userSpaceOnUse">
<stop stop-color="#19B8FF"/>
<stop offset="0.522" stop-color="#0C9ACF"/>
<stop offset="1" stop-color="#00378E"/>
</linearGradient>
<linearGradient id="paint8_linear_4_54" x1="19.1672" y1="20.7737" x2="23.4282" y2="29.0563" gradientUnits="userSpaceOnUse">
<stop stop-color="#FFCD45"/>
<stop offset="0.512" stop-color="#E54600"/>
<stop offset="1" stop-color="#A51900"/>
</linearGradient>
<linearGradient id="paint9_linear_4_54" x1="32.6704" y1="25.2769" x2="26.4186" y2="33.5387" gradientUnits="userSpaceOnUse">
<stop stop-color="#FF7E7E"/>
<stop offset="0.389" stop-color="#FF2B7D"/>
<stop offset="0.734" stop-color="#BE0050"/>
<stop offset="1" stop-color="#7C0051"/>
</linearGradient>
<linearGradient id="paint10_linear_4_54" x1="16.6146" y1="29.645" x2="16.6146" y2="20.2503" gradientUnits="userSpaceOnUse">
<stop stop-color="#F45C0C"/>
<stop offset="0.537" stop-color="#B217B2"/>
<stop offset="1" stop-color="#5F0045"/>
</linearGradient>
<linearGradient id="paint11_linear_4_54" x1="16.6147" y1="16.3497" x2="16.6147" y2="25.9276" gradientUnits="userSpaceOnUse">
<stop stop-color="#D67BFF"/>
<stop offset="0.537" stop-color="#8B0FE6"/>
<stop offset="1" stop-color="#42005F"/>
</linearGradient>
<linearGradient id="paint12_linear_4_54" x1="17.1514" y1="15.9323" x2="16.6679" y2="13.9601" gradientUnits="userSpaceOnUse">
<stop stop-color="#FFBA00"/>
<stop offset="0.508" stop-color="#E3441C"/>
<stop offset="1" stop-color="#A91C12"/>
</linearGradient>
<linearGradient id="paint13_linear_4_54" x1="14.7511" y1="14.7897" x2="16.4569" y2="13.9767" gradientUnits="userSpaceOnUse">
<stop stop-color="#FF79A2"/>
<stop offset="1" stop-color="#AF0050"/>
</linearGradient>
<linearGradient id="paint14_linear_4_54" x1="16.9076" y1="13.9854" x2="15.0938" y2="12.9382" gradientUnits="userSpaceOnUse">
<stop stop-color="#50098D"/>
<stop offset="1" stop-color="#E841AE"/>
</linearGradient>
<linearGradient id="paint15_linear_4_54" x1="17.0159" y1="12.3448" x2="16.6694" y2="14.3297" gradientUnits="userSpaceOnUse">
<stop stop-color="#AC43F0"/>
<stop offset="1" stop-color="#3B0687"/>
</linearGradient>
<linearGradient id="paint16_linear_4_54" x1="18.0274" y1="14.3196" x2="16.2643" y2="14.6383" gradientUnits="userSpaceOnUse">
<stop stop-color="#05CFFF"/>
<stop offset="1" stop-color="#0A529B"/>
</linearGradient>
</defs>
</svg>
